# xmcd
#
# Track frame offsets:
#	150
#	19974
#	38264
#	53336
#	68634
#	86495
#	100220
#	118853
#	135398
#	152507
#	166088
#	181554
#	198765
#	213536
#	228434
#	241795
#	257862
#
# Disc length: 3658
#
# Revision: 1
# Processed by: cddbd v1.5.1PL0 Copyright (c) Steve Scherf et al.
# Submitted via: CDex 1.51
# Normalized: r0:TDELIM( - )
#
DISCID=c80e4811
DTITLE=Various Artist - CDX Volume 366
DYEAR=2005
DGENRE=Country
TTITLE0=Rascall Flatts - Fast Cars And Freedom
TTITLE1=Van Zant - Help Somebody
TTITLE2=Steve Holy - Go Home
TTITLE3=Hot Apple Pie - Hillbillies
TTITLE4=Keith Urban - Making Memories Of Us
TTITLE5=Amanda Wilkinson - No More Me And You
TTITLE6=Rebecca Lynn Howard - No One'll Ever Love Me
TTITLE7=LeAnn Rimes - Probably Wouldn't Be This Way
TTITLE8=Blue Country - That Summer Song
TTITLE9=Alan Jackson - The Talkin Song Repair Blues
TTITLE10=Mark Chesnutt - A Hard Secret To Keep
TTITLE11=Neal McCoy - Billys Got His Beer Goggles On
TTITLE12=Drew Davis Band - Back There All The Time
TTITLE13=Grandstaff - She Dont Love Me More Than Nascar
TTITLE14=One Mile South - Thats Livin
TTITLE15=Colte Bradley - Drankin Business
TTITLE16=John Stone - Hell and Half Of Georgia
EXTD=YEAR: 2005
EXTT0=
EXTT1=
EXTT2=
EXTT3=
EXTT4=
EXTT5=
EXTT6=
EXTT7=
EXTT8=
EXTT9=
EXTT10=
EXTT11=
EXTT12=
EXTT13=
EXTT14=
EXTT15=
EXTT16=
PLAYORDER=
